<svg width="72" height="72" viewBox="0 0 72 72" fill="none" xmlns="http://www.w3.org/2000/svg">
<path d="M51 45L55.65 49.65C52.77 54.72 45.66 58.77 39 59.76V33H48V27H39V23.46C42.48 22.2 45 18.9 45 15C45 10.05 40.95 6 36 6C31.05 6 27 10.05 27 15C27 18.9 29.52 22.2 33 23.46V27H24V33H33V59.76C26.34 58.77 19.23 54.72 16.35 49.65L21 45L9 36V45C9 56.64 23.76 66 36 66C48.24 66 63 56.64 63 45V36L51 45ZM36 12C37.65 12 39 13.35 39 15C39 16.65 37.65 18 36 18C34.35 18 33 16.65 33 15C33 13.35 34.35 12 36 12Z" fill="#4891FF"/>
</svg>
