<svg width="55" height="14" viewBox="0 0 55 14" fill="none" xmlns="http://www.w3.org/2000/svg">
<path d="M39.286 13.8309C36.5818 13.8344 33.9034 13.4183 31.4043 12.6064C28.9051 11.7944 26.6345 10.6027 24.7224 9.09951C22.3316 7.22377 19.0918 6.1703 15.714 6.1703C12.3362 6.1703 9.09644 7.22377 6.70562 9.09951C6.34087 9.38624 5.90784 9.6137 5.43127 9.76888C4.95469 9.92406 4.4439 10.0039 3.92806 10.0039C3.41222 10.0039 2.90143 9.92406 2.42486 9.76888C1.94828 9.6137 1.51526 9.38624 1.1505 9.09951C0.785747 8.81277 0.496409 8.47236 0.299006 8.09772C0.101602 7.72308 -7.68662e-09 7.32154 0 6.91603C7.68663e-09 6.51052 0.101602 6.10899 0.299006 5.73435C0.496409 5.35971 0.785749 5.0193 1.1505 4.73256C5.01682 1.70189 10.254 0 15.714 0C21.174 0 26.4112 1.70189 30.2776 4.73256C32.6694 6.60679 35.9088 7.65922 39.286 7.65922C42.6631 7.65922 45.9025 6.60679 48.2944 4.73256C49.031 4.15347 50.0302 3.82814 51.0719 3.82814C52.1137 3.82814 53.1128 4.15347 53.8495 4.73256C54.5862 5.31165 55 6.09707 55 6.91603C55 7.73499 54.5862 8.52041 53.8495 9.09951C51.9379 10.6031 49.6673 11.7951 47.168 12.6071C44.6688 13.419 41.9902 13.8349 39.286 13.8309Z" fill="#4891FF"/>
</svg>
